# xmcd
#
# Track frame offsets:
#	150
#	13193
#	26105
#	41357
#	55502
#	66499
#	71451
#	88121
#	103331
#	117178
#	131357
#	146198
#	163768
#	178880
#	191931
#	202007
#	211122
#
# Disc length: 2952 seconds
#
# Revision: 0
# Processed by: cddbd v1.5.2PL0 Copyright (c) Steve Scherf et al.
# Submitted via: dBpowerAMP V4.0
#
DISCID=050b8611
DTITLE=2+1 - Nowy Wspanialy Swiat
DYEAR=1900
DGENRE=Oldies
TTITLE0=Czerwone Sloneczko
TTITLE1=Nowy Wspanialy Swiat
TTITLE2=Pani Moich Godzin
TTITLE3=Zielona Droga
TTITLE4=W Kamien Zakleci
TTITLE5=Kiedy Rzeka Plynie Kra
TTITLE6=Gniazdo wod
TTITLE7=Hej dogonie lato
TTITLE8=Wstawaj szkoda dnia
TTITLE9=Chodz pomaluj moj swiat
TTITLE10=Jasny bialy dzien
TTITLE11=Po jedwabnej stronie
TTITLE12=Wrocimy tam ktoregos ranka
TTITLE13=Spij baju baj
TTITLE14=Panna radosna
TTITLE15=Nie zmogla go kula
TTITLE16=Hej baby baby
EXTD=
EXTT0=
EXTT1=
EXTT2=
EXTT3=
EXTT4=
EXTT5=
EXTT6=
EXTT7=
EXTT8=
EXTT9=
EXTT10=
EXTT11=
EXTT12=
EXTT13=
EXTT14=
EXTT15=
EXTT16=
PLAYORDER=
